<?xml version="1.0" encoding="utf-8"?>
<!-- Generator: Adobe Illustrator 24.1.2, SVG Export Plug-In . SVG Version: 6.00 Build 0)  -->
<svg version="1.1" id="Layer_1" xmlns="http://www.w3.org/2000/svg" xmlns:xlink="http://www.w3.org/1999/xlink" x="0px" y="0px"
	 viewBox="0 0 54 54" style="enable-background:new 0 0 54 54;" xml:space="preserve">
<style type="text/css">
	.st0{fill:none;stroke:#1C3ED3;stroke-width:4;}
	.st1{fill:#012CD8;}
</style>
<desc>Created with Sketch.</desc>
<g id="Page-1">
	<g id="logo-mobile">
		<rect id="Rectangle-6" x="2" y="2.3" class="st0" width="50" height="50"/>
		<g>
			<path class="st1" d="M12.3,36.7c-1.4,0-2.6-0.2-3.8-0.7c-1.2-0.5-2.1-1.1-2.9-2s-1.4-1.9-1.7-3l4.2-2c0,0.8,0.2,1.4,0.6,2
				c0.4,0.6,0.8,1,1.4,1.3s1.3,0.5,2.1,0.5c1.1,0,2-0.3,2.7-0.9c0.7-0.6,1-1.4,1-2.4c0-0.7-0.2-1.4-0.5-2s-0.8-1-1.3-1.4
				s-1.2-0.5-1.9-0.5c-0.4,0-0.7,0.1-1,0.2v-3h1.1c0.6,0,1.1-0.2,1.6-0.5c0.5-0.3,0.9-0.7,1.2-1.2c0.3-0.5,0.4-1,0.4-1.6
				c0-0.6-0.1-1.1-0.4-1.5c-0.3-0.5-0.7-0.8-1.2-1.1c-0.5-0.3-1-0.4-1.7-0.4c-0.6,0-1.2,0.1-1.7,0.4c-0.5,0.3-1,0.7-1.3,1.1
				c-0.3,0.5-0.6,1-0.7,1.7L5.1,18c0.3-1,0.8-2,1.4-2.7s1.6-1.4,2.6-1.8s2.1-0.7,3.3-0.7c1.4,0,2.7,0.3,3.8,0.9
				c1.1,0.6,2,1.4,2.6,2.4c0.6,1,0.9,2.1,0.9,3.4c0,0.6-0.1,1.3-0.3,1.8s-0.5,1.1-0.8,1.5s-0.8,0.9-1.3,1.2c0.7,0.4,1.2,0.8,1.7,1.3
				c0.5,0.5,0.8,1.1,1.1,1.8c0.3,0.7,0.4,1.5,0.4,2.3c0,1.4-0.3,2.7-1,3.8c-0.7,1.1-1.7,2-2.9,2.6C15.4,36.4,13.9,36.7,12.3,36.7z"
				/>
			<path class="st1" d="M24.3,36.3l2.3-23.1h4.8l5.5,14.4l5.5-14.4h4.8l2.3,23.1H45l-1.4-15l-5.3,14.4h-2.8l-5.3-14.4l-1.4,15H24.3z
				"/>
		</g>
	</g>
</g>
</svg>
